<svg width="20" height="20" viewBox="0 0 20 20" fill="none" xmlns="http://www.w3.org/2000/svg"><g opacity=".5" clip-path="url(#clip0_4022_929)" fill="#fff"><path d="M5.627 5.218l7.152 9.563h1.62L7.247 5.217h-1.62z"/><path d="M10 0C4.476 0 0 4.477 0 10c0 5.522 4.477 9.998 10 9.998 5.522 0 9.998-4.476 9.998-9.999C19.998 4.477 15.522 0 10 0zm2.398 15.544L9.14 11.19l-4.03 4.354H4.075l4.603-4.973-4.574-6.116H7.63l2.999 4.01 3.711-4.01h1.036l-4.284 4.628 4.831 6.46h-3.525z"/></g><defs><clipPath id="clip0_4022_929"><rect width="19.998" height="19.998" fill="#fff"/></clipPath></defs></svg>