<svg width="50" height="50" viewBox="0 0 50 50" fill="none" xmlns="http://www.w3.org/2000/svg"><circle cx="25" cy="25" r="25" fill="#000"/><path d="M14.042 36.99c-.27 0-.538-.105-.74-.307a1.054 1.054 0 010-1.477L35.22 13.302a1.055 1.055 0 011.479 0 1.054 1.054 0 010 1.478L14.78 36.683c-.202.202-.47.307-.74.307z" fill="#fff"/><path d="M35.949 36.99c-.269 0-.538-.105-.74-.307L13.303 14.79a1.054 1.054 0 010-1.477 1.055 1.055 0 011.479 0l21.917 21.904a1.054 1.054 0 010 1.477c-.202.202-.47.307-.74.307l-.01-.01z" fill="#fff"/></svg>