<svg width="20" height="20" viewBox="0 0 20 20" fill="none" xmlns="http://www.w3.org/2000/svg"><path opacity=".5" d="M19.763 9.934a9.993 9.993 0 00-1.562-5.356A9.901 9.901 0 0014.018.913 9.825 9.825 0 003.47 2.377 9.95 9.95 0 00.43 7.045a10.006 10.006 0 00-.064 5.581A9.955 9.955 0 003.3 17.363a9.855 9.855 0 005.007 2.4v-6.952H5.799V9.934h2.508V7.757c0-2.49 1.48-3.87 3.737-3.87.741.01 1.48.076 2.21.197v2.449h-1.25a1.424 1.424 0 00-1.176.386 1.442 1.442 0 00-.44 1.164v1.85h2.745l-.453 2.878h-2.284v6.952a9.88 9.88 0 005.987-3.36 9.997 9.997 0 002.38-6.47z" fill="#fff"/></svg>