<svg width="20" height="20" viewBox="0 0 20 20" fill="none" xmlns="http://www.w3.org/2000/svg"><path opacity=".5" fill-rule="evenodd" clip-rule="evenodd" d="M10 20c5.523 0 10-4.477 10-10S15.523 0 10 0 0 4.477 0 10s4.477 10 10 10zm.048-12.886a2.893 2.893 0 10-.013 5.786 2.893 2.893 0 00.013-5.786zm0 4.74A1.853 1.853 0 1111.895 10a1.86 1.86 0 01-1.847 1.84v.014zm-2.387 4h4.678a3.529 3.529 0 003.523-3.522V7.647a3.53 3.53 0 00-3.523-3.523H7.661a3.53 3.53 0 00-3.523 3.523v4.685a3.53 3.53 0 003.523 3.523zM5.95 5.938a2.428 2.428 0 011.71-.712h4.678a2.428 2.428 0 012.422 2.422v4.685a2.421 2.421 0 01-2.422 2.415H7.661a2.421 2.421 0 01-2.421-2.415V7.647a2.428 2.428 0 01.71-1.71z" fill="#fff"/></svg>