<svg width="20" height="20" viewBox="0 0 20 20" fill="none" xmlns="http://www.w3.org/2000/svg"><path opacity=".5" fill-rule="evenodd" clip-rule="evenodd" d="M10 20c5.523 0 10-4.477 10-10S15.523 0 10 0 0 4.477 0 10s4.477 10 10 10zM5.807 8.14h1.908v6.224H5.807V8.139zm.964-3.072A1.122 1.122 0 115.663 6.17a1.115 1.115 0 011.108-1.1zm4.043 3.071h-1.86v6.231h1.935v-3.077c0-.814.157-1.601 1.163-1.601 1.005 0 1.005.964 1.005 1.648v3.03h1.908v-3.42c0-1.675-.362-2.961-2.318-2.961a2.052 2.052 0 00-1.833.998V8.14z" fill="#fff"/></svg>