<svg width="16" height="14" viewBox="0 0 16 14" fill="none" xmlns="http://www.w3.org/2000/svg">
<path d="M9.0011 13.4826C8.90548 13.3869 8.85176 13.2571 8.85176 13.1217C8.85176 12.9864 8.90548 12.8566 9.0011 12.7609L14.2566 7.50456L0.510652 7.50456C0.375219 7.50456 0.245332 7.45076 0.149566 7.355C0.0538003 7.25923 -2.95541e-07 7.12934 -2.89621e-07 6.99391C-2.83701e-07 6.85848 0.0538003 6.72859 0.149566 6.63282C0.245332 6.53706 0.375219 6.48326 0.510652 6.48326L14.2566 6.48326L9.0011 1.22694C8.9109 1.13014 8.8618 1.0021 8.86413 0.869808C8.86646 0.737514 8.92006 0.611291 9.01362 0.51773C9.10718 0.42417 9.2334 0.370577 9.36569 0.368243C9.49799 0.365909 9.62602 0.415016 9.72283 0.505217L15.8507 6.63305C15.9463 6.7288 16 6.85859 16 6.99391C16 7.12923 15.9463 7.25903 15.8507 7.35477L9.72283 13.4826C9.62708 13.5782 9.49729 13.6319 9.36196 13.6319C9.22664 13.6319 9.09685 13.5782 9.0011 13.4826Z" fill="black"/>
</svg>
