<svg width="20" height="20" viewBox="0 0 20 20" fill="none" xmlns="http://www.w3.org/2000/svg">
<g opacity="0.5" clip-path="url(#clip0_4022_929)">
<path d="M5.62744 5.21783L12.7794 14.7805H14.399L7.24705 5.21783H5.62744Z" fill="white"/>
<path d="M9.99915 0C4.47672 0 0 4.47672 0 9.99915C0 15.5216 4.47672 19.9983 9.99915 19.9983C15.5216 19.9983 19.9983 15.5216 19.9983 9.99915C19.9983 4.47672 15.5216 0 9.99915 0ZM12.3975 15.5436L9.14124 11.19L5.11112 15.5436H4.07508L8.67826 10.571L4.10427 4.45466H7.62982L10.6287 8.46441L14.3402 4.45466H15.3762L11.0917 9.08348L15.9234 15.5436H12.3979H12.3975Z" fill="white"/>
</g>
<defs>
<clipPath id="clip0_4022_929">
<rect width="19.9983" height="19.9983" fill="white"/>
</clipPath>
</defs>
</svg>
