<svg width="105" height="40" viewBox="0 0 105 40" fill="none" xmlns="http://www.w3.org/2000/svg"><g clip-path="url(#clip0_4022_948)" fill="#000"><path d="M9.055 31.764V.375H.385v39.25h25.688v-7.861H9.055zM50.218.375H36.653v39.25h8.675V8.17h4.155c4.336 0 7.039 2.077 7.039 5.945v.11c0 3.365-2.534 5.942-6.869 5.942h-1.82v7.683h1.538c8.84 0 15.936-4.71 15.936-13.79v-.112C65.307 5.926 59.621.375 50.22.375m39.212 0H75.869v39.25h8.674V8.17h4.155c4.336 0 7.04 2.077 7.04 5.945v.11c0 3.365-2.538 5.942-6.872 5.942h-1.82v7.683h1.537c8.843 0 15.937-4.71 15.937-13.79v-.112c0-8.022-5.685-13.573-15.088-13.573z"/></g><defs><clipPath id="clip0_4022_948"><rect width="104.906" height="40" fill="#fff"/></clipPath></defs></svg>