<svg width="241" height="40" viewBox="0 0 241 40" fill="none" xmlns="http://www.w3.org/2000/svg"><path d="M240.514 20.158C240.514 8.808 230.209 0 217.558 0c-12.652 0-23.019 8.401-23.019 19.54 0 10.512 8.455 18.93 19.842 20.27v-6.362c-7.452-1.227-13.079-6.792-13.079-13.49 0-7.592 7.24-13.754 16.168-13.754 8.929 0 16.173 6.162 16.173 13.755 0 6.643-5.54 12.174-12.905 13.456v6.373c10.931-1.326 19.78-9.433 19.78-19.635m-72.95 13.677c-7.025 0-13.009-3.803-15.24-9.132h-7.19C147.518 33.88 156.865 40 167.962 40c2.575 0 5.544-.253 8.003-.867 5.561-1.376 11.628-4.984 11.628-10.686V18.329h-20.1l-.02 6.37h13.692v2.89c0 3.193-4.769 5.042-7.692 5.689-1.572.348-3.591.547-5.213.547h-.7m13.622-22.177c-3.048-3.164-7.751-5.187-13.025-5.187-8.414 0-15.368 5.167-16.48 11.872h-7.045C145.553 7.929 156.197.257 168.244.257c7.166 0 13.601 2.666 17.935 6.958l-5.001 4.433M105.557 1.091h-6.51V39.15h6.402V10.71l26.237 28.439h4.768v-4.628l-30.897-33.43zm30.897 0h-6.402v18.482L136.454 26V1.09zm-56.23 26.261l5.905 11.802h7.696L74.518 1.091h-6.942v.012l9.666 20.183H64.396l3.354-6.577-3.495-7.154L47.978 39.15h7.195l6.088-11.798h18.967M6.457 1.095H0v38.06h6.399V12.987l14.53 23.23 3.703-5.926L6.457 1.095zm17.905 17.86l3.687 5.843 7.41-11.81V39.15h6.382V1.095h-6.51l-10.964 17.86" fill="#000"/></svg>