<svg width="108" height="40" viewBox="0 0 108 40" fill="none" xmlns="http://www.w3.org/2000/svg"><g clip-path="url(#clip0_4022_966)"><path d="M35.603.507v39.257h-3.6V7.707L19.07 32.792h-2.532L3.599 7.761v32.003H0V.507h3.77l14.06 27.108L31.893.507h3.71zm38.189 39.819l-6.524-6.976c-2.363 3.713-5.569 6.413-10.855 6.413-6.806 0-11.812-4.724-11.812-10.517 0-4.837 2.98-7.82 8.72-11.08-3.262-3.261-5.064-5.962-5.064-9.166 0-4.67 3.938-8.381 8.718-8.381 5.063 0 8.83 3.71 8.83 8.38 0 4.67-3.542 7.536-7.087 9.844l8.1 8.829 4.781-7.76 2.868 1.798-5.287 8.608 7.256 7.706-2.644 2.305v-.003zM55.569 20.642c-5.116 2.812-7.365 5.063-7.365 8.549 0 3.993 3.597 7.312 8.21 7.312 4.163 0 6.3-1.912 8.605-5.625L55.57 20.642h-.002zM51.801 9c0 2.192 1.46 4.047 4.668 7.48 3.768-2.194 5.849-4.5 5.849-7.48 0-2.981-1.967-5.232-5.343-5.232C53.827 3.768 51.8 6.242 51.8 9zm55.063-.114l-3.263 1.182c-1.294-4.104-4.95-6.749-9.898-6.749-5.398 0-8.943 2.7-8.943 7.254 0 9.787 22.385 4.612 22.385 18.393 0 6.58-5.288 11.192-13.16 11.192-7.313 0-11.699-3.486-14.735-9.055l3.036-1.855c2.024 4.274 5.735 7.594 11.362 7.594 6.522 0 9.9-2.981 9.9-7.931 0-9.843-22.387-5.005-22.387-18.393 0-7.93 7.144-10.516 12.43-10.516 5.962 0 11.362 2.7 13.273 8.886" fill="#000100"/></g><defs><clipPath id="clip0_4022_966"><rect width="107.2" height="40" fill="#fff"/></clipPath></defs></svg>