<svg width="347" height="40" viewBox="0 0 347 40" fill="none" xmlns="http://www.w3.org/2000/svg"><g clip-path="url(#clip0_4022_954)" fill="#231F20"><path d="M121.861 19.381c2.718 0 4.709-.38 6.189-1.298 2.052-1.299 2.935-3.41 2.935-6.112 0-2.925-1.056-4.812-2.71-5.946-1.471-1.03-3.531-1.463-6.587-1.463h-3.549V39.29h-6.025V.805h10.578c3.991 0 7.297.433 10.128 2.181 4.362 2.814 4.475 7.245 4.475 8.276 0 4.812-2.649 8.44-7.306 10.006-.415.165-.883.268-1.359.38l12.378 17.634h-6.855l-13.642-19.91h1.35v.009zm-112.114 0c2.71 0 4.717-.38 6.189-1.298 2.06-1.299 2.943-3.41 2.943-6.112 0-2.925-1.056-4.812-2.71-5.946-1.47-1.03-3.531-1.463-6.595-1.463h-3.54V39.29H0V.805h10.57c4.007 0 7.305.433 10.136 2.181 4.354 2.814 4.475 7.245 4.475 8.276 0 4.812-2.65 8.44-7.306 10.006-.407.165-.883.268-1.36.38l12.38 17.634H22.03L8.388 19.372h1.359v.009zM39.498.805h-6.06V39.29h6.06V.805zm39.222 0L64.236 39.29H59.38L44.657.805h6.64L62.678 31.17 73.88.805h4.84zm10.69 34.702h17.511v3.783h-23.58V.805h22.195v3.757H89.409V17.33h15.495v3.782H89.409v14.395zM172.361.805h-6.059V39.29h6.059V.805zM192.565 0c3.289 0 6.751.701 9.928 2.017v5.09c-3.575-2.06-7.323-3.142-10.387-3.142-3.844 0-6.665 1.783-6.665 5.029 0 8.543 19.649 7.037 19.649 19.909 0 6.163-4.553 11.097-13.876 11.097-4.051 0-8.093-.917-11.331-2.545v-5.522c2.666 2.328 7.514 4.06 11.773 4.06 4.484 0 8.015-1.948 8.015-5.844 0-9.14-19.667-7.461-19.667-20.23 0-6.924 5.774-9.919 12.561-9.919zm25.518.805v34.702h16.516l-1.446 3.783h-21.138V.805h6.068zm28.998 24.531h12.924l-6.536-16.931-6.397 16.931h.009zm24.947 13.954h-6.648l-3.921-10.17h-15.815l-3.869 10.17h-4.848L251.92.805h4.856l15.252 38.485zM307.302.805V39.29h-4.051l-22.056-28.773V39.29h-4.614V.805h4.847l21.251 27.717V.805h4.623zm26.972 6.137c-2.372-1.515-5.479-2.276-10.171-2.276h-3.8v30.729h3.8c4.276 0 7.687-.65 10.171-2.277 3.809-2.432 5.609-7.037 5.609-13.148 0-6.112-1.791-10.604-5.609-13.037m6.241 28.029c-3.419 2.926-8.431 4.328-14.447 4.328h-11.841V.805h11.841c6.008 0 11.028 1.368 14.447 4.293 3.861 3.359 5.705 8.605 5.705 14.932 0 6.328-1.844 11.582-5.705 14.932z"/></g><defs><clipPath id="clip0_4022_954"><rect width="346.219" height="40" fill="#fff"/></clipPath></defs></svg>