<svg width="140" height="44" viewBox="0 0 140 44" fill="none" xmlns="http://www.w3.org/2000/svg"><g clip-path="url(#clip0_8011_98)" fill="#000"><path d="M120.154 43.766h-7.261l-.022-.117c.1-.028.2-.064.3-.087 1.631-.372 2.194-1.034 2.213-2.726.026-2.354.014-4.707.014-7.063 0-3.247.024-6.497-.024-9.744-.028-1.88-.527-3.652-1.669-5.184-1.84-2.465-4.896-3.074-7.767-1.564-2.489 1.308-4.063 3.449-5.279 5.892-1.643 3.302-2.37 6.85-2.64 10.488-.164 2.226-.164 4.463-.176 6.698-.005.64.133 1.304.33 1.916.332 1.028 1.296 1.19 2.196 1.471h-7.1c.005-.035 0-.087.014-.092 2.2-.79 2.475-1.145 2.482-3.546.014-6.883.005-13.766.005-20.649 0-.118-.003-.24-.01-.358-.12-2.14-.491-2.607-2.514-3.261h7.002l.007.107h-4.799c2.106 1.396 2.251 3.543 2.334 5.636.103 2.553.024 5.115.112 7.682.394-1.264.73-2.546 1.19-3.783 1.275-3.418 3.146-6.423 6.302-8.438 2.092-1.337 4.369-1.905 6.832-1.235 2.816.768 4.83 3.34 5.131 6.544.107 1.124.128 2.26.154 3.39.027 1.1.005 2.202.1 3.318.394-1.237.732-2.496 1.192-3.707 1.285-3.38 3.149-6.354 6.291-8.336 2.101-1.325 4.378-1.884 6.836-1.19 2.99.844 5.093 3.69 5.146 7.198.083 5.542.042 11.086.061 16.627 0 .536.024 1.074.086 1.605.176 1.46.643 1.962 2.063 2.285.131.028.257.068.364.227h-7.136c.059-.066.105-.161.157-.166 1.938-.17 2.389-1.417 2.398-2.967.033-5.454.033-10.905-.009-16.36-.012-1.585-.359-3.128-1.131-4.547-1.899-3.485-5.832-4.298-9.27-1.89-2.707 1.897-4.234 4.63-5.324 7.647-1.163 3.218-1.645 6.57-1.786 9.973-.061 1.517-.033 3.039-.033 4.558 0 2.579.171 2.823 2.634 3.745l.004.003zm-79.332.002h-7.226c2.465-1.015 2.6-1.216 2.595-3.99-.01-5.363.026-10.724-.069-16.086-.06-3.408-2.225-6.266-5.129-6.996-2.745-.69-5.14.187-7.264 1.863-3.236 2.557-4.856 6.1-5.872 9.973-1.061 4.046-1.133 8.182-1.054 12.328.03 1.635.807 2.685 2.528 2.915h-7.107c.015-.047.022-.135.05-.142 2.073-.605 2.432-1.079 2.446-3.48.021-3.695.007-7.388.007-11.083 0-3.07.005-6.136-.005-9.206 0-.594-.03-1.192-.111-1.782-.157-1.168-.781-1.785-1.95-2.005a.715.715 0 01-.458-.256h7.029c0 .055.005.109.007.164h-5.12c2.396 1.353 2.541 3.486 2.627 5.555.107 2.617.026 5.24.026 8.109.527-1.574.912-2.944 1.436-4.257 1.44-3.605 3.62-6.634 7.096-8.561 2.33-1.29 4.82-1.75 7.425-1.034 3.331.915 5.516 4.003 5.547 7.888.043 5.483.01 10.965.024 16.447 0 .53.052 1.069.145 1.593.178 1.021.79 1.633 1.838 1.79.192.028.38.084.57.127l-.027.128-.004-.002zm44.25-8.002c-.79.884-1.46 1.908-2.36 2.66-5.094 4.254-14.013 4.353-19.289.312-3.628-2.778-4.927-7.196-4.103-11.227h.035c-.014-.178.005-.36.057-.531h-.01c.485-2.257 1.59-4.089 3.278-5.542 3.334-2.868 7.297-3.792 11.588-3.48 2.906.212 5.613 1.089 7.966 2.864 2.066 1.557 3.467 3.565 4.075 6.158h-.047c.104.158.17.34.202.53h.432c-.079-.338-.13-.597-.197-.85-1.997-7.76-10.439-13.454-18.995-10.045-5.461 2.176-9.384 7.938-9.125 13.522.396 8.58 8.2 15.057 16.363 13.676 4.825-.818 8.352-3.46 10.64-7.758.086-.159.01-.405.01-.61-.173.105-.387.176-.515.32h-.005zM7.024 6.63H1.909c.401.25.618.379.827.516 1.199.787 1.873 1.816 1.868 3.328-.028 9.628-.014 19.253-.014 28.88 0 .328-.002.657 0 .984.024 2.185.458 2.75 2.546 3.477H0c.055-.107.074-.192.104-.197 1.8-.234 2.392-1.114 2.396-2.96.027-10.341.02-20.684.015-31.026 0-1.666-.606-2.896-2.463-3.166h7.003c-.012.054-.021.109-.033.163h.002zm45.663 37.145h-7.15c.065-.074.105-.166.164-.183 1.857-.483 2.242-.87 2.328-2.813.085-1.963.047-3.932.05-5.9.004-5.005.004-10.011 0-15.02 0-.504-.027-1.012-.077-1.516-.142-1.45-.657-2.024-2.101-2.375-.13-.031-.259-.074-.56-.159 3.822-.604 4.181-3.513 4.794-6.34v6.229h4.478v.184h-7.19c2.479 1.42 2.652 3.66 2.68 5.85.075 6.077.03 12.157.039 18.236 0 .503.043 1.01.11 1.51.154 1.17.78 1.9 1.998 2.053.157.019.312.075.466.113-.007.043-.017.086-.024.128l-.005.003zM3.85 3.212c-.867-.029-1.604-.851-1.56-1.742C2.331.6 3.08-.05 3.981.002 4.87.055 5.538.785 5.49 1.654c-.047.86-.81 1.584-1.638 1.558h-.003z"/><path d="M88.867 27.3s.807-.752-6.856-.41c-2.006.087-9.035.249-12.849.308v-.003c-8.059.081-16.244.114-16.244.266 0 .147 7.739.178 15.572.225 3.54.029 11.391.033 13.526.09 7.618.2 6.85-.476 6.85-.476zm-3.27.23c-1.1.004-1.992-.067-1.992-.162 0-.092.89-.175 1.99-.18 1.099-.004 1.992.067 1.992.162 0 .092-.89.175-1.988.18h-.002z"/></g><defs><clipPath id="clip0_8011_98"><rect width="139.652" height="44" fill="#fff"/></clipPath></defs></svg>