<svg width="389" height="40" viewBox="0 0 389 40" fill="none" xmlns="http://www.w3.org/2000/svg"><g clip-path="url(#clip0_4022_968)" fill="#231F20"><path d="M174.621 29.212C174.528 34.745 170.541 40 162.813 40c-6.523 0-11.978-4.807-12.288-10.974h6.925c.154 3.06 2.303 4.9 6.043 4.73 3.338-.155 4.899-2.999 4.946-5.193.062-2.628-.402-4.993-7.79-7.574-6.306-2.21-9.351-4.884-9.351-11.004 0-6.121 5.734-9.908 10.711-9.985 8.254-.14 12.071 5.178 11.963 9.629h-6.785c-.201-2.287-2.473-3.895-4.884-3.895-2.411 0-4.884 1.638-4.884 4.853 0 3.478 2.117 4.745 7.187 6.554 8.871 2.874 10.139 7.032 10.015 12.07zm-74.42 0C100.108 34.745 96.121 40 88.393 40c-6.523 0-11.979-4.807-12.288-10.974h6.924c.155 3.06 2.303 4.9 6.044 4.73 3.338-.155 4.884-2.999 4.945-5.193.062-2.628-.401-4.993-7.79-7.574-6.305-2.21-9.35-4.884-9.35-11.004 0-6.121 5.734-9.908 10.71-9.985 8.254-.14 12.072 5.178 11.964 9.629h-6.786c-.2-2.287-2.473-3.895-4.868-3.895-2.396 0-4.884 1.638-4.884 4.853 0 3.478 2.117 4.745 7.187 6.554 8.872 2.874 10.139 7.032 10.015 12.07h-.015zM384.374 4.034h.356c.417 0 .742-.14.742-.464 0-.293-.201-.494-.681-.494-.185 0-.324.015-.401.046v.912h-.016zm-.031 1.793h-.742l.031-3.184a6.124 6.124 0 011.221-.108c.603 0 .866.108 1.113.263.17.139.309.401.309.68 0 .37-.278.649-.664.757v.03c.309.11.479.356.571.79.093.494.155.68.232.787h-.803c-.093-.123-.155-.401-.248-.772-.061-.356-.247-.51-.664-.51h-.356v1.267zm.51-4.204c-1.406 0-2.473 1.128-2.473 2.535 0 1.422 1.036 2.565 2.473 2.58 1.407.032 2.442-1.112 2.458-2.534 0-1.406-1.02-2.566-2.442-2.566h-.016v-.015zm.062-.65c1.824.016 3.246 1.454 3.23 3.231 0 1.808-1.452 3.215-3.307 3.2-1.839-.016-3.292-1.423-3.277-3.246.016-1.778 1.484-3.2 3.323-3.184h.031zm-111.623.109h-5.904v37.62h20.649v-5.394H273.57l-.278-.279V1.082zm-35.626 0h-5.904v37.62h20.649v-5.394l-14.466-.016-.279-.263V1.082zM122.767 6.77l-.263-.263h-10.046V1.082h26.522v5.425h-10.031l-.263.263-.015 31.932h-5.904V6.77zm202.272-5.673H304.42v37.605h20.619v-5.394h-14.467l-.263-.279V22.473l.263-.278h12.04v-5.487h-12.04l-.263-.263v-9.66l.263-.278h14.467v-5.41zm-112.612 0h-20.618v37.605h20.618v-5.394h-14.451l-.263-.279V22.473l.263-.278h12.04v-5.487h-12.04l-.263-.263v-9.66l.263-.278h14.451v-5.41zm-151.53 0H40.278v37.62h20.619v-5.41H46.43l-.263-.262V22.473l.263-.263h12.04v-5.487H46.43l-.263-.262V6.785l.263-.263h14.467V1.097zm292.194 0c-2.287 0-7.991 0-9.088.217v37.388h5.92v-15.95l.278-.264h2.875c2.673 0 3.632 1.762 4.822 4.359 1.623 3.555 2.349 6.708 3.864 11.855h6.429c-.602-1.979-2.782-8.563-4.683-13.663-1.128-3.014-2.565-4.668-4.281-5.085v-.17c3.107-1.221 6.492-3.385 6.646-8.918.077-2.813-.525-5.302-2.318-7.033-2.226-2.117-5.765-2.72-10.464-2.72m-2.906 15.61l-.278-.278v-9.66l.278-.278h3.772c4.374 0 5.904 2.767 5.904 4.977 0 4.39-2.891 5.286-5.889 5.224h-3.787v.015zM9.52 1.097h-.37c-2.257.016-8.068 0-9.15.201V38.64c1.175.216 6.97.263 9.428.263 6.028 0 8.254-.68 10.65-2.813 1.931-1.731 2.874-4.374 2.874-7.636 0-5.58-2.597-8.114-5.92-9.35v-.17c2.535-1.33 4.467-3.648 4.467-8.378 0-2.983-.989-5.146-2.766-6.723-2.21-1.978-5.194-2.736-9.212-2.736zM6.183 16.723l-.278-.278v-9.66l.263-.278h3.678c4.436 0 5.812 2.226 5.812 4.822 0 3.215-1.298 5.379-5.533 5.379H6.182v.015zm1.592 16.585H6.167l-.278-.279V22.473l.278-.278H9.83c4.142 0 6.97 1.994 6.97 5.796 0 2.983-1.36 5.317-6.645 5.332-.912 0-1.716-.015-2.38-.015z"/></g><defs><clipPath id="clip0_4022_968"><rect width="388.145" height="40" fill="#fff"/></clipPath></defs></svg>