<svg width="96" height="40" viewBox="0 0 96 40" fill="none" xmlns="http://www.w3.org/2000/svg"><path d="M90.203 38.816L76.116.026 76.106 0h-.278l-2.9 7.971-5.281 14.512-.013-.011c-1.83-1.615-4.412-2.625-7.665-3.001l-.991-.102.984-.127c5.363-.964 8.968-4.351 8.968-8.433 0-5.597-5.264-9.504-12.803-9.504H40.44v.284h4.558v28.92L33.928.027 33.918 0h-.278l-2.9 7.971-11.19 30.746-.069.008a12.25 12.25 0 01-1.409.091H6.768L28.258 1.59l.159-.28H2.135v11.516h.279C2.464 7.215 5.729 1.59 12.946 1.59h8.706L0 39.095h29.169V28.062h-.279c-.038 4.89-2.81 9.533-8.835 10.581l-.191.033 4.589-12.616h12.855l4.633 12.756h-4.57v.28h17.935v-.28h-4.589V19.574h5.295c5.389 0 8.48 2.408 8.48 6.604v3.413c0 .377.025.926.053 1.386v.017l-2.846 7.82h-3.718v.28h7.696v-.28H62l2.592-7.12c.006.068.008.11.008.11l.072.641.069.425c.432 2.626 1.436 4.556 2.983 5.737l.223.162C69.12 39.586 70.582 40 72.289 40c2.262 0 3.77-.564 5.016-1.892l-.164-.153c-1.147 1.059-2.11 1.488-3.316 1.488-2.055 0-3.131-2.493-3.131-4.953v-4.782a10.74 10.74 0 00-.55-3.493l-.051-.148v-.005h9.403l4.632 12.756h-4.57v.28H95.08v-.28l-4.876-.002zM24.555 25.781L30.888 8.38l6.319 17.402H24.555zm26.165-6.487V1.59h4.042c5.399 0 8.25 3.21 8.25 9.28 0 6.456-1.637 8.425-7 8.425H50.72zm19.263 6.487l-.027-.069a8.644 8.644 0 00-1.793-2.736l-.264-.265-.028-.026 5.201-14.306 6.319 17.402h-9.408z" fill="#000"/></svg>