<svg width="347" height="40" viewBox="0 0 347 40" fill="none" xmlns="http://www.w3.org/2000/svg">
<g clip-path="url(#clip0_4022_954)">
<path d="M121.861 19.381C124.579 19.381 126.57 19.0001 128.05 18.0826C130.102 16.7842 130.985 14.6721 130.985 11.9713C130.985 9.04557 129.929 7.15854 128.275 6.02458C126.804 4.9945 124.744 4.56169 121.688 4.56169H118.139V39.2901H112.114V0.804932H122.692C126.683 0.804932 129.989 1.23774 132.82 2.98628C137.182 5.79952 137.295 10.2315 137.295 11.2615C137.295 16.0744 134.646 19.7013 129.989 21.268C129.574 21.4325 129.106 21.5364 128.63 21.6489L141.008 39.2815H134.153L120.511 19.3723H121.861V19.381Z" fill="#231F20"/>
<path d="M9.74681 19.381C12.4562 19.381 14.4644 19.0001 15.9359 18.0826C17.9961 16.7842 18.879 14.6721 18.879 11.9713C18.879 9.04557 17.823 7.15854 16.1697 6.02458C14.6981 4.9945 12.638 4.56169 9.57369 4.56169H6.03333V39.2901H0V0.804932H10.5691C14.5769 0.804932 17.8749 1.23774 20.7055 2.98628C25.0595 5.79952 25.1807 10.2315 25.1807 11.2615C25.1807 16.0744 22.5319 19.7013 17.8749 21.268C17.4681 21.4325 16.992 21.5364 16.5159 21.6489L28.8942 39.2815H22.0299L8.38779 19.3723H9.74681V19.381Z" fill="#231F20"/>
<path d="M39.4978 0.804932H33.4385V39.2901H39.4978V0.804932Z" fill="#231F20"/>
<path d="M78.7191 0.804932L64.2374 39.2901H59.3813L44.6572 0.804932H51.2965L62.6793 31.1707L73.8803 0.804932H78.7191Z" fill="#231F20"/>
<path d="M89.4093 35.5074H106.921V39.2901H83.3413V0.804932H105.536V4.56169H89.4093V17.3295H104.904V21.1122H89.4093V35.5074Z" fill="#231F20"/>
<path d="M172.361 0.804932H166.302V39.2901H172.361V0.804932Z" fill="#231F20"/>
<path d="M192.565 0C195.854 0 199.316 0.701147 202.493 2.01688V7.10669C198.918 5.04653 195.17 3.96451 192.106 3.96451C188.262 3.96451 185.441 5.74767 185.441 8.99372C185.441 17.5373 205.09 16.0312 205.09 28.9028C205.09 35.066 200.537 40 191.214 40C187.163 40 183.121 39.0825 179.883 37.4551V31.9325C182.549 34.261 187.397 35.9922 191.656 35.9922C196.14 35.9922 199.671 34.0446 199.671 30.1493C199.671 21.0084 180.004 22.6877 180.004 9.91993C180.004 2.99502 185.778 0 192.565 0Z" fill="#231F20"/>
<path d="M218.083 0.804932V35.5074H234.599L233.153 39.2901H212.015V0.804932H218.083Z" fill="#231F20"/>
<path d="M247.081 25.3364H260.005L253.469 8.40502L247.072 25.3364H247.081ZM272.028 39.2901H265.38L261.459 29.1191H245.644L241.775 39.2901H236.927L251.92 0.804932H256.776L272.028 39.2901Z" fill="#231F20"/>
<path d="M307.302 0.804932V39.2901H303.251L281.195 10.5171V39.2901H276.581V0.804932H281.428L302.679 28.5219V0.804932H307.302Z" fill="#231F20"/>
<path d="M334.274 6.94213C331.902 5.42731 328.795 4.66557 324.103 4.66557H320.303V35.3948H324.103C328.379 35.3948 331.79 34.7456 334.274 33.1183C338.083 30.6859 339.883 26.0808 339.883 19.9696C339.883 13.8584 338.092 9.36585 334.274 6.93348M340.515 34.962C337.096 37.8878 332.084 39.2901 326.068 39.2901H314.227V0.804932H326.068C332.076 0.804932 337.096 2.1726 340.515 5.09837C344.376 8.45696 346.22 13.7026 346.22 20.0302C346.22 26.3578 344.376 31.6121 340.515 34.962Z" fill="#231F20"/>
</g>
<defs>
<clipPath id="clip0_4022_954">
<rect width="346.219" height="40" fill="white"/>
</clipPath>
</defs>
</svg>
